<svg xmlns="http://www.w3.org/2000/svg">
    <symbol id="discord-icon" viewBox="0 0 20 19">
        <path fill="#08060d"
              d="M16.224 3.768a14.5 14.5 0 0 0-3.67-1.153c-.158.286-.343.67-.47.976a13.5 13.5 0 0 0-4.067 0c-.128-.306-.317-.69-.476-.976A14.4 14.4 0 0 0 3.868 3.77C1.546 7.28.916 10.703 1.231 14.077a14.7 14.7 0 0 0 4.5 2.306q.545-.748.965-1.587a9.5 9.5 0 0 1-1.518-.74q.191-.14.372-.293c2.927 1.369 6.107 1.369 8.999 0q.183.152.372.294-.723.437-1.52.74.418.838.963 1.588a14.6 14.6 0 0 0 4.504-2.308c.37-3.911-.63-7.302-2.644-10.309m-9.13 8.234c-.878 0-1.599-.82-1.599-1.82 0-.998.705-1.82 1.6-1.82.894 0 1.614.82 1.599 1.82.001 1-.705 1.82-1.6 1.82m5.91 0c-.878 0-1.599-.82-1.599-1.82 0-.998.705-1.82 1.6-1.82.893 0 1.614.82 1.599 1.82 0 1-.706 1.82-1.6 1.82"/>
    </symbol>
    <symbol id="documentation-icon" viewBox="0 0 21 20">
        <path fill="none" stroke="#aa3bff" stroke-linecap="round" stroke-linejoin="round" stroke-width="1.35"
              d="m15.5 13.333 1.533 1.322c.645.555.967.833.967 1.178s-.322.623-.967 1.179L15.5 18.333m-3.333-5-1.534 1.322c-.644.555-.966.833-.966 1.178s.322.623.966 1.179l1.534 1.321"/>
        <path fill="none" stroke="#aa3bff" stroke-linecap="round" stroke-linejoin="round" stroke-width="1.35"
              d="M17.167 10.836v-4.32c0-1.41 0-2.117-.224-2.68-.359-.906-1.118-1.621-2.08-1.96-.599-.21-1.349-.21-2.848-.21-2.623 0-3.935 0-4.983.369-1.684.591-3.013 1.842-3.641 3.428C3 6.449 3 7.684 3 10.154v2.122c0 2.558 0 3.838.706 4.726q.306.383.713.671c.76.536 1.79.64 3.581.66"/>
        <path fill="none" stroke="#aa3bff" stroke-linecap="round" stroke-linejoin="round" stroke-width="1.35"
              d="M3 10a2.78 2.78 0 0 1 2.778-2.778c.555 0 1.209.097 1.748-.047.48-.129.854-.503.982-.982.145-.54.048-1.194.048-1.749a2.78 2.78 0 0 1 2.777-2.777"/>
    </symbol>
    <symbol id="github-icon" viewBox="0 0 19 19">
        <path fill="#08060d" fill-rule="evenodd"
              d="M9.356 1.85C5.05 1.85 1.57 5.356 1.57 9.694a7.84 7.84 0 0 0 5.324 7.44c.387.079.528-.168.528-.376 0-.182-.013-.805-.013-1.454-2.165.467-2.616-.935-2.616-.935-.349-.91-.864-1.143-.864-1.143-.71-.48.051-.48.051-.48.787.051 1.2.805 1.2.805.695 1.194 1.817.857 2.268.649.064-.507.27-.857.49-1.052-1.728-.182-3.545-.857-3.545-3.87 0-.857.31-1.558.8-2.104-.078-.195-.349-1 .077-2.078 0 0 .657-.208 2.14.805a7.5 7.5 0 0 1 1.946-.26c.657 0 1.328.092 1.946.26 1.483-1.013 2.14-.805 2.14-.805.426 1.078.155 1.883.078 2.078.502.546.799 1.247.799 2.104 0 3.013-1.818 3.675-3.558 3.87.284.247.528.714.528 1.454 0 1.052-.012 1.896-.012 2.156 0 .208.142.455.528.377a7.84 7.84 0 0 0 5.324-7.441c.013-4.338-3.48-7.844-7.773-7.844"
              clip-rule="evenodd"/>
    </symbol>
    <symbol id="social-icon" viewBox="0 0 20 20">
        <path fill="none" stroke="#aa3bff" stroke-linecap="round" stroke-linejoin="round" stroke-width="1.35"
              d="M12.5 6.667a4.167 4.167 0 1 0-8.334 0 4.167 4.167 0 0 0 8.334 0"/>
        <path fill="none" stroke="#aa3bff" stroke-linecap="round" stroke-linejoin="round" stroke-width="1.35"
              d="M2.5 16.667a5.833 5.833 0 0 1 8.75-5.053m3.837.474.513 1.035c.07.144.257.282.414.309l.93.155c.596.1.736.536.307.965l-.723.73a.64.64 0 0 0-.152.531l.207.903c.164.715-.213.991-.84.618l-.872-.52a.63.63 0 0 0-.577 0l-.872.52c-.624.373-1.003.094-.84-.618l.207-.903a.64.64 0 0 0-.152-.532l-.723-.729c-.426-.43-.289-.864.306-.964l.93-.156a.64.64 0 0 0 .412-.31l.513-1.034c.28-.562.735-.562 1.012 0"/>
    </symbol>
    <symbol id="sun-icon" viewBox="0 0 24 24">
        <circle cx="12" cy="12" r="4"/>
        <path d="M12 2v2"/>
        <path d="M12 20v2"/>
        <path d="m4.93 4.93 1.41 1.41"/>
        <path d="m17.66 17.66 1.41 1.41"/>
        <path d="M2 12h2"/>
        <path d="M20 12h2"/>
        <path d="m6.34 17.66-1.41 1.41"/>
        <path d="m19.07 4.93-1.41 1.41"/>
    </symbol>
    <symbol id="moon-icon" viewBox="0 0 24 24">
        <path d="M12 3a6 6 0 0 0 9 9 9 9 0 1 1-9-9Z"/>
    </symbol>
    <symbol id="github-icon-2" viewBox="0 0 24 24">
        <path d="M15 22v-4a4.8 4.8 0 0 0-1-3.5c3 0 6-2 6-5.5.08-1.25-.27-2.48-1-3.5.28-1.15.28-2.35 0-3.5 0 0-1 0-3 1.5-2.64-.5-5.36-.5-8 0C6 2 5 2 5 2c-.3 1.15-.3 2.35 0 3.5A5.403 5.403 0 0 0 4 9c0 3.5 3 5.5 6 5.5-.39.49-.68 1.05-.85 1.65-.17.6-.22 1.23-.15 1.85v4"/>
        <path d="M9 18c-4.51 2-5-2-7-2"/>
    </symbol>
    <symbol id="link-icon" viewBox="0 0 24 24">
        <path d="M15 3h6v6"/>
        <path d="M10 14 21 3"/>
        <path d="M18 13v6a2 2 0 0 1-2 2H5a2 2 0 0 1-2-2V8a2 2 0 0 1 2-2h6"/>
    </symbol>
    <symbol id="mail-icon" viewBox="0 0 24 24">
        <rect width="20" height="16" x="2" y="4" rx="2"/>
        <path d="m22 7-8.97 5.7a1.94 1.94 0 0 1-2.06 0L2 7"/>
    </symbol>
    <symbol id="linkedin-icon" viewBox="0 0 24 24">
        <path d="M16 8a6 6 0 0 1 6 6v7h-4v-7a2 2 0 0 0-2-2 2 2 0 0 0-2 2v7h-4v-7a6 6 0 0 1 6-6z"/>
        <rect width="4" height="12" x="2" y="9"/>
        <circle cx="4" cy="4" r="2"/>
    </symbol>
</svg>
